# xmcd CD database file generated by OrangeCD 6.1
#
# Track frame offsets:
#	150
#	21852
#	46594
#	58306
#	69365
#	82791
#	94816
#	118087
#	142249
#	158955
#	170332
#	183086
#	202548
#	218909
#	237057
#	256635
#	272096
#	290935
#	311154
#
# Disc length: 4416 seconds
#
# Revision: 0
# Processed by: cddbd v1.5.2PL0 Copyright (c) Steve Scherf et al.
# Submitted via: OrangeCD 6.1
#
DISCID=0a113e13
DTITLE=Various Artist - Easy Rock Volume 4
DYEAR=2008
DGENRE=Dance Easy Rock
TTITLE0=Atlantic Starr - Always
TTITLE1=The Pointer Sisters - I Need You
TTITLE2=The Temptations - Ain't Too Proud To Beg
TTITLE3=Aretha Franklin - Respect
TTITLE4=The Temptations - My Girl
TTITLE5=Wilson Pickett - In The Midnight Hour
TTITLE6=Daryl Hall and John Oates - I Can't Go For That (No Can Do)
TTITLE7=Patti LaBelle and Michael McDonald - Oh, People
TTITLE8=Michael Jackson - Rock With Me
TTITLE9=Jr. Walker and The All Stars - What Does It Take (To Win Your Love)
TTITLE10=Four Tops - I Can't Help Myself (Sugar Pie, Honey Bunch)
TTITLE11=Rod Stewart With Ronnie Wood - Having A Party
TTITLE12=Elton John With Paul Young - I'm Your Puppet
TTITLE13=Patti Labelle and The Bluebelles - Lady Marmalade
TTITLE14=Rod Stewart With The Temptations - The Motown Song
TTITLE15=Simply Red - If You Don't Know Me By Now
TTITLE16=Tears For Fears - Everybody Wants To Rule The World
TTITLE17=Paul Young - Everytime You Go Away
TTITLE18=Lou Rawls - You'll Never Find Another Love Like Mine
EXTD=
EXTT0=
EXTT1=
EXTT2=
EXTT3=
EXTT4=
EXTT5=
EXTT6=
EXTT7=
EXTT8=
EXTT9=
EXTT10=
EXTT11=
EXTT12=
EXTT13=
EXTT14=
EXTT15=
EXTT16=
EXTT17=
EXTT18=
PLAYORDER=
